<svg width="121" height="50" viewBox="0 0 121 50" fill="none" xmlns="http://www.w3.org/2000/svg">
<g clip-path="url(#clip0)">
<path fill-rule="evenodd" clip-rule="evenodd" d="M29.7667 47.8512C39.9935 43.6607 46.1296 35.1925 47 21.748C47.3046 14.5893 45.1722 8.60913 40.7333 4.89881C35.3806 0.839286 30.8546 -0.0773806 8.61667 0.228175C3.00278 32.7917 0.130556 49.2917 0 49.7718C26.1981 50.0337 29.7667 47.8512 29.7667 47.8512ZM10.7926 2.75992C7.22407 22.9702 3.0463 46.9345 3.00278 47.2401C12.838 47.502 20.8454 47.6329 26.938 46.0615C33.3787 44.3591 37.6 40.8234 40.4722 35.9345C42.9093 31.8313 44.4324 26.9425 44.5194 21.3115C44.65 11.752 40.5157 6.47024 34.7278 4.33135C28.0694 1.8869 19.2787 2.84722 10.7926 2.75992Z" fill="#E63C24"/>
<path fill-rule="evenodd" clip-rule="evenodd" d="M35.4676 24.4544C35.8157 20.002 34.9889 15.7679 33.0305 13.3671C30.637 10.7044 29.1574 9.08929 18.0167 9.43849C14.4481 29.6488 12.5333 40.2996 12.4898 40.5615C22.412 41.1726 33.2046 39.9067 35.4676 24.4544ZM33.0741 23.1012C33.2917 12.1012 26.938 11.7083 20.1055 11.9266C17.4509 26.9425 15.5361 37.8988 15.4491 38.1171C23.4565 38.9028 32.3778 35.3671 33.0741 23.1012Z" fill="#E63C24"/>
</g>
<path d="M58.26 7.4H62.4C64.38 7.4 65.88 7.904 66.9 8.912C67.92 9.908 68.43 11.336 68.43 13.196V14.204C68.43 16.04 67.914 17.468 66.882 18.488C65.85 19.496 64.356 20 62.4 20H58.26V7.4ZM60.42 9.308V18.092H62.4C63.648 18.092 64.584 17.774 65.208 17.138C65.844 16.502 66.162 15.524 66.162 14.204V13.196C66.162 11.888 65.844 10.916 65.208 10.28C64.572 9.632 63.636 9.308 62.4 9.308H60.42ZM70.4944 11H72.5824V20H70.4944V11ZM71.5384 9.92C71.1544 9.92 70.8304 9.794 70.5664 9.542C70.3144 9.278 70.1884 8.954 70.1884 8.57C70.1884 8.186 70.3144 7.868 70.5664 7.616C70.8304 7.352 71.1544 7.22 71.5384 7.22C71.9104 7.22 72.2284 7.352 72.4924 7.616C72.7564 7.868 72.8884 8.186 72.8884 8.57C72.8884 8.954 72.7564 9.278 72.4924 9.542C72.2284 9.794 71.9104 9.92 71.5384 9.92ZM73.9298 11H76.1978L78.5378 17.732L80.7698 11H82.9298L79.7798 20H77.2598L73.9298 11ZM84.2756 11H86.3636V20H84.2756V11ZM85.3196 9.92C84.9356 9.92 84.6116 9.794 84.3476 9.542C84.0956 9.278 83.9696 8.954 83.9696 8.57C83.9696 8.186 84.0956 7.868 84.3476 7.616C84.6116 7.352 84.9356 7.22 85.3196 7.22C85.6916 7.22 86.0096 7.352 86.2736 7.616C86.5376 7.868 86.6696 8.186 86.6696 8.57C86.6696 8.954 86.5376 9.278 86.2736 9.542C86.0096 9.794 85.6916 9.92 85.3196 9.92ZM88.3411 11H95.3611V12.836L90.4831 18.164H95.3611V20H88.1611V18.164L93.0391 12.836H88.3411V11ZM97.0725 11H99.1605V20H97.0725V11ZM98.1165 9.92C97.7325 9.92 97.4085 9.794 97.1445 9.542C96.8925 9.278 96.7665 8.954 96.7665 8.57C96.7665 8.186 96.8925 7.868 97.1445 7.616C97.4085 7.352 97.7325 7.22 98.1165 7.22C98.4885 7.22 98.8065 7.352 99.0705 7.616C99.3345 7.868 99.4665 8.186 99.4665 8.57C99.4665 8.954 99.3345 9.278 99.0705 9.542C98.8065 9.794 98.4885 9.92 98.1165 9.92ZM105.368 20.162C104.012 20.162 102.95 19.778 102.182 19.01C101.426 18.242 101.048 17.168 101.048 15.788V15.212C101.048 14.528 101.144 13.916 101.336 13.376C101.54 12.836 101.828 12.38 102.2 12.008C102.584 11.624 103.04 11.336 103.568 11.144C104.096 10.94 104.696 10.838 105.368 10.838C106.724 10.838 107.78 11.222 108.536 11.99C109.304 12.758 109.688 13.832 109.688 15.212V15.788C109.688 16.472 109.586 17.084 109.382 17.624C109.19 18.164 108.902 18.626 108.518 19.01C108.146 19.382 107.69 19.67 107.15 19.874C106.622 20.066 106.028 20.162 105.368 20.162ZM105.368 18.218C106.052 18.218 106.574 18.02 106.934 17.624C107.306 17.228 107.492 16.616 107.492 15.788V15.212C107.492 14.396 107.3 13.79 106.916 13.394C106.544 12.986 106.028 12.782 105.368 12.782C104.684 12.782 104.156 12.98 103.784 13.376C103.424 13.772 103.244 14.384 103.244 15.212V15.788C103.244 16.604 103.43 17.216 103.802 17.624C104.186 18.02 104.708 18.218 105.368 18.218ZM111.484 11H113.122L113.284 12.008C113.956 11.228 114.886 10.838 116.074 10.838C117.178 10.838 118.036 11.168 118.648 11.828C119.272 12.476 119.584 13.46 119.584 14.78V20H117.496V14.78C117.496 14.12 117.334 13.622 117.01 13.286C116.698 12.95 116.266 12.782 115.714 12.782C115.066 12.782 114.55 12.956 114.166 13.304C113.794 13.652 113.596 14.114 113.572 14.69V20H111.484V11ZM61.41 43.162C60.174 43.162 59.256 42.892 58.656 42.352C58.068 41.8 57.726 41.026 57.63 40.03H59.826C59.922 40.546 60.078 40.912 60.294 41.128C60.522 41.332 60.894 41.434 61.41 41.434C62.022 41.434 62.436 41.35 62.652 41.182C62.88 41.002 62.994 40.768 62.994 40.48C62.994 40.156 62.862 39.91 62.598 39.742C62.346 39.574 62.028 39.442 61.644 39.346C61.26 39.238 60.846 39.142 60.402 39.058C59.958 38.962 59.544 38.824 59.16 38.644C58.776 38.452 58.452 38.194 58.188 37.87C57.936 37.534 57.81 37.072 57.81 36.484C57.81 36.112 57.882 35.764 58.026 35.44C58.17 35.116 58.392 34.84 58.692 34.612C58.992 34.372 59.364 34.186 59.808 34.054C60.264 33.91 60.798 33.838 61.41 33.838C62.562 33.838 63.426 34.108 64.002 34.648C64.578 35.176 64.914 35.92 65.01 36.88H62.814C62.718 36.388 62.568 36.046 62.364 35.854C62.172 35.662 61.854 35.566 61.41 35.566C60.894 35.566 60.528 35.65 60.312 35.818C60.108 35.986 60.006 36.19 60.006 36.43C60.006 36.73 60.132 36.952 60.384 37.096C60.648 37.228 60.972 37.342 61.356 37.438C61.74 37.522 62.154 37.612 62.598 37.708C63.042 37.792 63.456 37.936 63.84 38.14C64.224 38.332 64.542 38.608 64.794 38.968C65.058 39.328 65.19 39.814 65.19 40.426C65.19 40.822 65.112 41.188 64.956 41.524C64.812 41.86 64.584 42.148 64.272 42.388C63.972 42.628 63.582 42.82 63.102 42.964C62.634 43.096 62.07 43.162 61.41 43.162ZM71.7102 43.162C70.5822 43.162 69.7062 42.808 69.0822 42.1V46.6H66.9942V34H68.6322L68.8302 35.224C69.1422 34.756 69.5382 34.408 70.0182 34.18C70.5102 33.952 71.0742 33.838 71.7102 33.838C72.2262 33.838 72.7002 33.934 73.1322 34.126C73.5762 34.306 73.9542 34.582 74.2662 34.954C74.5782 35.314 74.8242 35.77 75.0042 36.322C75.1842 36.862 75.2742 37.492 75.2742 38.212V38.788C75.2742 39.508 75.1842 40.138 75.0042 40.678C74.8242 41.218 74.5722 41.674 74.2482 42.046C73.9362 42.418 73.5642 42.7 73.1322 42.892C72.7002 43.072 72.2262 43.162 71.7102 43.162ZM71.0802 41.218C71.7162 41.218 72.2082 41.026 72.5562 40.642C72.9042 40.258 73.0782 39.64 73.0782 38.788V38.212C73.0782 37.384 72.8982 36.772 72.5382 36.376C72.1782 35.98 71.6922 35.782 71.0802 35.782C70.5042 35.782 70.0302 35.98 69.6582 36.376C69.2982 36.772 69.1062 37.348 69.0822 38.104V38.788C69.0822 39.58 69.2682 40.186 69.6402 40.606C70.0242 41.014 70.5042 41.218 71.0802 41.218ZM80.8465 43.162C79.4905 43.162 78.4285 42.778 77.6605 42.01C76.9045 41.242 76.5265 40.168 76.5265 38.788V38.212C76.5265 37.528 76.6225 36.916 76.8145 36.376C77.0185 35.836 77.3065 35.38 77.6785 35.008C78.0625 34.624 78.5185 34.336 79.0465 34.144C79.5745 33.94 80.1745 33.838 80.8465 33.838C82.2025 33.838 83.2585 34.222 84.0145 34.99C84.7825 35.758 85.1665 36.832 85.1665 38.212V38.788C85.1665 39.472 85.0645 40.084 84.8605 40.624C84.6685 41.164 84.3805 41.626 83.9965 42.01C83.6245 42.382 83.1685 42.67 82.6285 42.874C82.1005 43.066 81.5065 43.162 80.8465 43.162ZM80.8465 41.218C81.5305 41.218 82.0525 41.02 82.4125 40.624C82.7845 40.228 82.9705 39.616 82.9705 38.788V38.212C82.9705 37.396 82.7785 36.79 82.3945 36.394C82.0225 35.986 81.5065 35.782 80.8465 35.782C80.1625 35.782 79.6345 35.98 79.2625 36.376C78.9025 36.772 78.7225 37.384 78.7225 38.212V38.788C78.7225 39.604 78.9085 40.216 79.2805 40.624C79.6645 41.02 80.1865 41.218 80.8465 41.218ZM86.963 34H88.601L88.763 35.008C89.075 34.624 89.459 34.336 89.915 34.144C90.383 33.94 90.899 33.838 91.463 33.838H92.363V35.782H91.463C90.635 35.782 90.023 35.962 89.627 36.322C89.243 36.682 89.051 37.168 89.051 37.78V43H86.963V34ZM93.0724 34H94.6924V31.48H96.7804V34H99.0124V35.836H96.7804V39.814C96.7804 40.282 96.8824 40.624 97.0864 40.84C97.3024 41.056 97.6204 41.164 98.0404 41.164H99.1924V43H97.6624C96.7024 43 95.9644 42.748 95.4484 42.244C94.9444 41.728 94.6924 40.99 94.6924 40.03V35.836H93.0724V34Z" fill="black"/>
<defs>
<clipPath id="clip0">
<rect width="47" height="50" fill="white"/>
</clipPath>
</defs>
</svg>
