<?xml version="1.0" encoding="UTF-8"?>
<!DOCTYPE svg PUBLIC "-//W3C//DTD SVG 1.1//EN" "http://www.w3.org/Graphics/SVG/1.1/DTD/svg11.dtd">
<!-- Creator: CorelDRAW 2020 (64-Bit) -->
<svg xmlns="http://www.w3.org/2000/svg" xml:space="preserve" width="121px" height="120px" version="1.1" style="shape-rendering:geometricPrecision; text-rendering:geometricPrecision; image-rendering:optimizeQuality; fill-rule:evenodd; clip-rule:evenodd"
viewBox="0 0 5.83 5.78"
 xmlns:xlink="http://www.w3.org/1999/xlink"
 xmlns:xodm="http://www.corel.com/coreldraw/odm/2003">
 <defs>
  <style type="text/css">
   <![CDATA[
    .fil1 {fill:#E63C24;fill-rule:nonzero}
    .fil0 {fill:white;fill-rule:nonzero}
   ]]>
  </style>
 </defs>
 <g id="Слой_x0020_1">
  <metadata id="CorelCorpID_0Corel-Layer"/>
  <g>
   <path class="fil0" d="M2.36 1.22l-0.63 3.34 0.49 0c0.62,0 1.12,-0.18 1.49,-0.55 0.36,-0.37 0.55,-0.87 0.55,-1.5 0,-0.43 -0.12,-0.75 -0.36,-0.97 -0.24,-0.22 -0.6,-0.32 -1.07,-0.32l-0.47 0zm-1.15 -1.07l1.41 0c0.68,0 1.19,0.04 1.52,0.12 0.34,0.09 0.63,0.23 0.85,0.43 0.23,0.2 0.4,0.44 0.51,0.72 0.11,0.28 0.17,0.6 0.17,0.96 0,0.5 -0.1,0.97 -0.29,1.41 -0.2,0.44 -0.47,0.81 -0.82,1.1 -0.31,0.27 -0.67,0.46 -1.07,0.57 -0.41,0.12 -1.04,0.17 -1.88,0.17l-1.42 0 1.02 -5.48z"/>
   <path id="1" class="fil1" d="M1.58 4.54l0.63 -3.35 0.3 0.05 -0.63 3.35 -0.15 0.12 -0.15 -0.17zm0.15 0.17l-0.19 0 0.04 -0.17 0.15 0.17zm0.49 0l-0.49 0 0 -0.29 0.49 0 0 0 0 0.29zm1.37 -0.8l0.23 0.2 0 0 -0.04 0.04 -0.04 0.03 -0.03 0.04 -0.05 0.03 -0.04 0.03 -0.04 0.03 -0.04 0.03 -0.04 0.03 -0.05 0.03 -0.04 0.03 -0.05 0.02 -0.05 0.03 -0.05 0.02 -0.04 0.02 -0.05 0.02 -0.05 0.02 -0.05 0.02 -0.06 0.02 -0.05 0.01 -0.05 0.02 -0.05 0.01 -0.06 0.01 -0.05 0.01 -0.06 0.01 -0.06 0.01 -0.05 0.01 -0.06 0.01 -0.06 0 -0.06 0 -0.06 0.01 -0.06 0 -0.06 0 0 -0.29 0.05 0 0.06 -0.01 0.05 0 0.05 0 0.06 -0.01 0.05 0 0.05 -0.01 0.05 -0.01 0.04 -0.01 0.05 0 0.05 -0.02 0.05 -0.01 0.04 -0.01 0.05 -0.01 0.04 -0.02 0.04 -0.01 0.04 -0.02 0.05 -0.02 0.04 -0.01 0.04 -0.02 0.04 -0.02 0.03 -0.03 0.04 -0.02 0.04 -0.02 0.04 -0.02 0.03 -0.03 0.04 -0.03 0.03 -0.02 0.04 -0.03 0.03 -0.03 0.03 -0.03 0.03 -0.03 0 0zm0.23 0.2l0 0 0 0 0 0zm0.28 -1.6l0.31 0 0 0 0 0.06 0 0.06 0 0.06 -0.01 0.06 0 0.06 -0.01 0.06 -0.01 0.05 -0.01 0.06 0 0.06 -0.02 0.05 -0.01 0.05 -0.01 0.06 -0.01 0.05 -0.02 0.05 -0.02 0.05 -0.01 0.05 -0.02 0.05 -0.02 0.05 -0.03 0.05 -0.02 0.05 -0.02 0.05 -0.03 0.04 -0.02 0.05 -0.03 0.04 -0.03 0.05 -0.03 0.04 -0.03 0.04 -0.03 0.04 -0.03 0.04 -0.04 0.04 -0.03 0.04 -0.04 0.04 -0.23 -0.2 0.03 -0.03 0.03 -0.04 0.03 -0.03 0.03 -0.03 0.03 -0.04 0.02 -0.04 0.03 -0.03 0.02 -0.04 0.03 -0.04 0.02 -0.03 0.02 -0.04 0.02 -0.04 0.02 -0.04 0.02 -0.05 0.01 -0.04 0.02 -0.04 0.02 -0.05 0.01 -0.04 0.01 -0.05 0.02 -0.04 0.01 -0.05 0.01 -0.05 0.01 -0.05 0.01 -0.04 0 -0.05 0.01 -0.06 0.01 -0.05 0 -0.05 0 -0.05 0.01 -0.06 0 -0.05 0 -0.06 0 0zm-0.31 -0.86l0.22 -0.21 0 0 0.02 0.02 0.03 0.03 0.02 0.02 0.02 0.03 0.02 0.02 0.03 0.03 0.02 0.03 0.02 0.03 0.01 0.03 0.02 0.03 0.02 0.03 0.02 0.03 0.01 0.03 0.02 0.03 0.01 0.04 0.01 0.03 0.01 0.03 0.02 0.04 0.01 0.03 0.01 0.04 0.01 0.04 0 0.03 0.01 0.04 0.01 0.04 0 0.04 0.01 0.03 0 0.04 0.01 0.04 0 0.05 0 0.04 0 0.04 0 0.04 -0.31 0 0 -0.04 0 -0.03 0 -0.04 -0.01 -0.03 0 -0.04 0 -0.03 -0.01 -0.04 0 -0.03 -0.01 -0.03 0 -0.03 -0.01 -0.03 -0.01 -0.03 0 -0.03 -0.01 -0.03 -0.01 -0.03 -0.01 -0.02 -0.01 -0.03 -0.01 -0.03 -0.01 -0.02 -0.02 -0.02 -0.01 -0.03 -0.01 -0.02 -0.01 -0.02 -0.02 -0.03 -0.01 -0.02 -0.02 -0.02 -0.01 -0.02 -0.02 -0.02 -0.02 -0.02 -0.01 -0.02 -0.02 -0.01 -0.02 -0.02 0 0zm-0.96 -0.29l0 -0.29 0 0 0.05 0 0.04 0 0.05 0 0.04 0 0.05 0.01 0.04 0 0.04 0.01 0.04 0 0.05 0.01 0.04 0 0.04 0.01 0.04 0.01 0.04 0.01 0.03 0.01 0.04 0.01 0.04 0.01 0.04 0.01 0.03 0.01 0.04 0.01 0.03 0.02 0.04 0.01 0.03 0.02 0.03 0.02 0.03 0.01 0.04 0.02 0.03 0.02 0.03 0.02 0.03 0.02 0.02 0.02 0.03 0.02 0.03 0.02 0.03 0.03 -0.22 0.21 -0.02 -0.02 -0.02 -0.01 -0.02 -0.02 -0.02 -0.02 -0.02 -0.01 -0.03 -0.02 -0.02 -0.01 -0.02 -0.01 -0.03 -0.02 -0.02 -0.01 -0.03 -0.01 -0.02 -0.01 -0.03 -0.01 -0.03 -0.01 -0.03 -0.01 -0.03 -0.01 -0.03 -0.01 -0.03 -0.01 -0.03 -0.01 -0.03 0 -0.03 -0.01 -0.04 -0.01 -0.03 0 -0.04 -0.01 -0.03 0 -0.04 -0.01 -0.04 0 -0.04 0 -0.04 0 -0.04 -0.01 -0.04 0 -0.04 0 0 0zm-0.47 -0.29l0.47 0 0 0.29 -0.47 0 -0.15 -0.17 0.15 -0.12zm-0.15 0.12l0.02 -0.12 0.13 0 -0.15 0.12zm0.41 -0.9l-1.41 0 0 -0.29 1.41 0 0 0 0 0.29zm1.56 -0.16l-0.08 0.29 0 0 -0.03 -0.01 -0.03 -0.01 -0.03 0 -0.03 -0.01 -0.04 -0.01 -0.03 0 -0.04 -0.01 -0.04 -0.01 -0.03 0 -0.04 -0.01 -0.05 0 -0.04 -0.01 -0.04 0 -0.04 -0.01 -0.05 0 -0.04 0 -0.05 -0.01 -0.05 0 -0.05 -0.01 -0.05 0 -0.05 0 -0.05 0 -0.05 -0.01 -0.06 0 -0.05 0 -0.06 0 -0.06 0 -0.06 0 -0.06 0 -0.06 -0.01 -0.06 0 -0.06 0 0 -0.29 0.06 0 0.07 0 0.06 0 0.06 0 0.06 0 0.06 0 0.06 0.01 0.05 0 0.06 0 0.05 0 0.06 0.01 0.05 0 0.05 0 0.05 0 0.05 0.01 0.05 0 0.05 0.01 0.05 0 0.04 0.01 0.05 0 0.04 0.01 0.05 0 0.04 0.01 0.04 0 0.04 0.01 0.04 0.01 0.04 0 0.04 0.01 0.04 0.01 0.03 0.01 0.04 0 0.03 0.01 0 0zm0.92 0.46l-0.22 0.22 0 0 -0.02 -0.02 -0.02 -0.02 -0.02 -0.01 -0.02 -0.02 -0.02 -0.02 -0.02 -0.01 -0.02 -0.02 -0.02 -0.01 -0.02 -0.01 -0.02 -0.02 -0.03 -0.01 -0.02 -0.02 -0.02 -0.01 -0.03 -0.01 -0.02 -0.01 -0.02 -0.02 -0.03 -0.01 -0.02 -0.01 -0.03 -0.01 -0.02 -0.01 -0.03 -0.01 -0.03 -0.01 -0.02 -0.02 -0.03 -0.01 -0.03 0 -0.02 -0.01 -0.03 -0.01 -0.03 -0.01 -0.03 -0.01 -0.03 -0.01 -0.03 -0.01 -0.03 0 0.08 -0.29 0.04 0.01 0.03 0.01 0.03 0.01 0.04 0.01 0.03 0.01 0.03 0.01 0.03 0.01 0.03 0.01 0.03 0.01 0.04 0.01 0.03 0.02 0.03 0.01 0.03 0.01 0.02 0.02 0.03 0.01 0.03 0.01 0.03 0.02 0.03 0.01 0.03 0.02 0.02 0.01 0.03 0.02 0.03 0.02 0.02 0.01 0.03 0.02 0.03 0.02 0.02 0.02 0.03 0.01 0.02 0.02 0.03 0.02 0.02 0.02 0.02 0.02 0.03 0.02 0 0zm0.55 0.78l-0.3 0.1 0 0 -0.01 -0.02 -0.01 -0.03 -0.01 -0.02 -0.01 -0.02 -0.01 -0.03 -0.01 -0.02 -0.01 -0.02 -0.02 -0.03 -0.01 -0.02 -0.01 -0.02 -0.01 -0.02 -0.02 -0.03 -0.01 -0.02 -0.01 -0.02 -0.02 -0.02 -0.01 -0.02 -0.02 -0.02 -0.01 -0.02 -0.02 -0.02 -0.01 -0.02 -0.02 -0.02 -0.02 -0.02 -0.01 -0.02 -0.02 -0.02 -0.02 -0.02 -0.01 -0.02 -0.02 -0.02 -0.02 -0.01 -0.02 -0.02 -0.02 -0.02 -0.02 -0.02 -0.02 -0.01 0.22 -0.22 0.02 0.02 0.02 0.02 0.02 0.02 0.02 0.02 0.03 0.02 0.02 0.03 0.02 0.02 0.02 0.02 0.02 0.02 0.02 0.02 0.02 0.03 0.01 0.02 0.02 0.02 0.02 0.03 0.02 0.02 0.02 0.03 0.01 0.02 0.02 0.02 0.02 0.03 0.01 0.03 0.02 0.02 0.01 0.03 0.02 0.02 0.01 0.03 0.02 0.03 0.01 0.02 0.01 0.03 0.02 0.03 0.01 0.02 0.01 0.03 0.01 0.03 0.02 0.03 0 0zm0.18 1.01l-0.31 0 0 0 -0.01 -0.03 0 -0.03 0 -0.03 0 -0.04 0 -0.03 0 -0.03 0 -0.03 -0.01 -0.03 0 -0.03 0 -0.03 0 -0.03 -0.01 -0.03 0 -0.03 -0.01 -0.03 0 -0.02 -0.01 -0.03 0 -0.03 -0.01 -0.03 0 -0.03 -0.01 -0.02 0 -0.03 -0.01 -0.03 -0.01 -0.03 -0.01 -0.02 0 -0.03 -0.01 -0.03 -0.01 -0.02 -0.01 -0.03 -0.01 -0.02 -0.01 -0.03 -0.01 -0.02 -0.01 -0.03 0.3 -0.1 0.01 0.03 0.01 0.02 0.01 0.03 0.01 0.03 0.01 0.03 0.01 0.03 0.01 0.03 0 0.03 0.01 0.03 0.01 0.03 0.01 0.03 0.01 0.03 0 0.03 0.01 0.04 0.01 0.03 0 0.03 0.01 0.03 0 0.03 0.01 0.03 0 0.04 0.01 0.03 0 0.03 0 0.03 0.01 0.04 0 0.03 0 0.03 0 0.04 0 0.03 0.01 0.04 0 0.03 0 0.04 0 0.03 0 0zm-0.31 1.46l-0.29 -0.11 0.01 0 0.01 -0.04 0.02 -0.04 0.02 -0.04 0.01 -0.04 0.02 -0.04 0.01 -0.04 0.01 -0.04 0.02 -0.04 0.01 -0.04 0.01 -0.04 0.01 -0.04 0.02 -0.05 0.01 -0.04 0.01 -0.04 0.01 -0.04 0.01 -0.04 0 -0.05 0.01 -0.04 0.01 -0.04 0.01 -0.04 0 -0.05 0.01 -0.04 0 -0.04 0.01 -0.05 0 -0.04 0.01 -0.04 0 -0.05 0 -0.04 0 -0.05 0 -0.04 0 -0.04 0.01 -0.05 0.31 0 0 0.05 0 0.05 -0.01 0.05 0 0.04 0 0.05 0 0.05 -0.01 0.05 0 0.04 -0.01 0.05 0 0.05 -0.01 0.04 -0.01 0.05 0 0.05 -0.01 0.04 -0.01 0.05 -0.01 0.04 -0.01 0.05 -0.01 0.04 -0.01 0.05 -0.01 0.05 -0.01 0.04 -0.02 0.04 -0.01 0.05 -0.01 0.04 -0.02 0.05 -0.01 0.04 -0.02 0.05 -0.02 0.04 -0.01 0.04 -0.02 0.05 -0.02 0.04 -0.02 0.04 0 0zm-0.29 -0.11l0.01 0 0.01 -0.03 -0.02 0.03zm-0.57 1.27l-0.21 -0.21 0 -0.01 0.04 -0.02 0.03 -0.03 0.03 -0.03 0.03 -0.03 0.03 -0.02 0.02 -0.03 0.03 -0.03 0.03 -0.03 0.03 -0.03 0.03 -0.03 0.02 -0.03 0.03 -0.03 0.03 -0.03 0.02 -0.04 0.03 -0.03 0.02 -0.03 0.02 -0.03 0.03 -0.04 0.02 -0.03 0.02 -0.04 0.03 -0.03 0.02 -0.04 0.02 -0.03 0.02 -0.04 0.02 -0.03 0.02 -0.04 0.02 -0.04 0.02 -0.04 0.02 -0.03 0.02 -0.04 0.02 -0.04 0.01 -0.04 0.29 0.11 -0.02 0.05 -0.02 0.04 -0.02 0.04 -0.02 0.04 -0.02 0.04 -0.02 0.04 -0.02 0.04 -0.02 0.04 -0.03 0.04 -0.02 0.04 -0.03 0.04 -0.02 0.04 -0.03 0.04 -0.02 0.03 -0.03 0.04 -0.02 0.04 -0.03 0.03 -0.03 0.04 -0.03 0.03 -0.03 0.04 -0.02 0.03 -0.03 0.04 -0.03 0.03 -0.04 0.03 -0.03 0.04 -0.03 0.03 -0.03 0.03 -0.03 0.03 -0.04 0.03 -0.03 0.03 -0.03 0.03 -0.04 0.03 0 0zm-0.21 -0.21l0 0 0 -0.01 0 0.01zm-0.92 0.81l-0.09 -0.28 0 0 0.04 -0.01 0.03 -0.01 0.04 -0.01 0.03 -0.01 0.04 -0.01 0.03 -0.02 0.04 -0.01 0.03 -0.01 0.03 -0.01 0.04 -0.02 0.03 -0.01 0.03 -0.02 0.04 -0.01 0.03 -0.02 0.03 -0.02 0.03 -0.01 0.03 -0.02 0.03 -0.02 0.04 -0.01 0.03 -0.02 0.03 -0.02 0.03 -0.02 0.03 -0.02 0.03 -0.02 0.03 -0.02 0.02 -0.02 0.03 -0.02 0.03 -0.02 0.03 -0.03 0.03 -0.02 0.03 -0.02 0.02 -0.02 0.21 0.21 -0.03 0.03 -0.03 0.02 -0.03 0.03 -0.03 0.02 -0.03 0.03 -0.04 0.02 -0.03 0.03 -0.03 0.02 -0.03 0.02 -0.04 0.02 -0.03 0.02 -0.04 0.03 -0.03 0.02 -0.03 0.02 -0.04 0.02 -0.04 0.01 -0.03 0.02 -0.04 0.02 -0.03 0.02 -0.04 0.02 -0.04 0.01 -0.03 0.02 -0.04 0.01 -0.04 0.02 -0.04 0.01 -0.04 0.02 -0.03 0.01 -0.04 0.02 -0.04 0.01 -0.04 0.01 -0.04 0.01 -0.04 0.01 0 0zm-1.92 0.18l0 -0.29 0 0 0.07 0 0.08 -0.01 0.08 0 0.07 0 0.07 0 0.07 0 0.07 0 0.07 0 0.07 -0.01 0.07 0 0.06 0 0.06 -0.01 0.07 0 0.06 -0.01 0.06 0 0.05 -0.01 0.06 0 0.06 -0.01 0.05 0 0.05 -0.01 0.06 -0.01 0.05 0 0.04 -0.01 0.05 -0.01 0.05 -0.01 0.04 0 0.05 -0.01 0.04 -0.01 0.04 -0.01 0.04 -0.01 0.04 -0.01 0.03 -0.01 0.09 0.28 -0.04 0.02 -0.04 0.01 -0.05 0.01 -0.04 0.01 -0.05 0.01 -0.05 0.01 -0.05 0 -0.04 0.01 -0.06 0.01 -0.05 0.01 -0.05 0.01 -0.06 0 -0.05 0.01 -0.06 0.01 -0.06 0 -0.06 0.01 -0.06 0 -0.06 0.01 -0.06 0 -0.07 0.01 -0.06 0 -0.07 0 -0.07 0.01 -0.06 0 -0.08 0 -0.07 0 -0.07 0.01 -0.07 0 -0.08 0 -0.08 0 -0.07 0 -0.08 0 0 0zm-1.42 -0.29l1.42 0 0 0.29 -1.42 0 -0.16 -0.17 0.16 -0.12zm0 0.29l-0.19 0 0.03 -0.17 0.16 0.17zm1.17 -5.61l-1.02 5.49 -0.31 -0.05 1.02 -5.49 0.16 -0.12 0.15 0.17zm-0.31 -0.05l0.02 -0.12 0.14 0 -0.16 0.12z"/>
  </g>
 </g>
</svg>
