<svg width="22" height="22" viewBox="0 0 22 22" fill="none" xmlns="http://www.w3.org/2000/svg">
<path d="M20.2632 14.4853C18.9061 14.4853 17.5769 14.2734 16.3159 13.8565C15.7011 13.6446 15.004 13.8079 14.5988 14.2201L12.1012 16.1063C9.23653 14.5779 7.40243 12.745 5.89257 9.89887L7.72781 7.46034C8.18981 6.9972 8.35541 6.32211 8.15741 5.68876C7.73937 4.422 7.52634 3.09158 7.52634 1.73684C7.52634 0.779246 6.74709 0 5.7895 0H1.73684C0.779246 0 0 0.779246 0 1.73684C0 12.9094 9.09064 22 20.2632 22C21.2208 22 22 21.2208 22 20.2632V16.2221C22 15.2645 21.2208 14.4853 20.2632 14.4853ZM20.8421 20.2632C20.8421 20.5827 20.5816 20.8421 20.2632 20.8421C9.7286 20.8421 1.15788 12.2714 1.15788 1.73684C1.15788 1.41726 1.4184 1.15788 1.73684 1.15788H5.7895C6.10794 1.15788 6.36846 1.41726 6.36846 1.73684C6.36846 3.21549 6.60006 4.6675 7.05392 6.04422C7.12106 6.26072 7.06667 6.48423 6.85478 6.70422L4.74739 9.49473C4.61425 9.67188 4.59341 9.90924 4.69415 10.1061C6.41129 13.479 8.49669 15.5656 11.894 17.3059C12.0896 17.4078 12.3293 17.3869 12.5065 17.2527L15.3572 15.092C15.5124 14.9392 15.7405 14.8859 15.9466 14.9542C17.3315 15.4116 18.7835 15.6432 20.2633 15.6432C20.5817 15.6432 20.8422 15.9025 20.8422 16.2221V20.2632H20.8421Z" fill="black"/>
</svg>
