<svg xmlns="http://www.w3.org/2000/svg" fill="#022867" width="0.9cm" height="0.804333cm" style="shape-rendering:geometricPrecision; text-rendering:geometricPrecision; image-rendering:optimizeQuality; fill-rule:evenodd; clip-rule:evenodd" viewBox="0 0 7 8.03">
  <path class="fil0" d="M3.89 0l3.89 4.01 -3.89 4.01 -3.89 -4.01 3.89 -4.01zm3.51 4.01l-3.51 -3.62 -3.51 3.62 3.51 3.62 3.51 -3.62zm-3.45 -3.78l3.67 3.78c-1.24,1.28 -2.48,2.56 -3.72,3.84 -1.24,-1.28 -2.48,-2.56 -3.72,-3.84 1.24,-1.28 2.48,-2.56 3.72,-3.84l0.06 0.06zm-1.52 4.9l0.39 -2.24 0.53 0 -0.24 1.35 -0.04 0.19 0.16 -0.14 1.53 -1.4 0.6 0 -0.4 2.24 -0.52 0 0.24 -1.35 0.04 -0.19 -1.71 1.54 -0.59 0z"/>
</svg>
