<?xml version="1.0" encoding="UTF-8"?>
<!DOCTYPE svg PUBLIC "-//W3C//DTD SVG 1.1//EN" "http://www.w3.org/Graphics/SVG/1.1/DTD/svg11.dtd">
<!-- Creator: CorelDRAW 2020 (64-Bit) -->
<svg xmlns="http://www.w3.org/2000/svg" xml:space="preserve" width="121px" height="51px" version="1.1" style="shape-rendering:geometricPrecision; text-rendering:geometricPrecision; image-rendering:optimizeQuality; fill-rule:evenodd; clip-rule:evenodd"
viewBox="0 0 16.78 7.11"
 xmlns:xlink="http://www.w3.org/1999/xlink"
 xmlns:xodm="http://www.corel.com/coreldraw/odm/2003">
 <defs>
  <style type="text/css">
   <![CDATA[
    .fil0 {fill:black;fill-rule:nonzero}
   ]]>
  </style>
 </defs>
 <g id="Слой_x0020_1">
  <metadata id="CorelCorpID_0Corel-Layer"/>
  <path class="fil0" d="M1.08 3.02c-0.12,0 -0.2,-0.02 -0.26,-0.06 -0.05,-0.04 -0.07,-0.11 -0.07,-0.19 0,-0.04 0,-0.1 0.02,-0.17l0.27 -1.29c0.03,-0.15 0.09,-0.25 0.17,-0.32 0.08,-0.07 0.18,-0.1 0.32,-0.1l1 0 -0.11 0.51 -0.7 0c-0.04,0 -0.07,0.01 -0.09,0.02 -0.02,0.02 -0.04,0.05 -0.05,0.1l-0.18 0.86c0,0.03 -0.01,0.04 -0.01,0.05 0,0.05 0.04,0.07 0.1,0.07l0.91 0 0.53 -2.5 0.59 0 -0.63 3.02 -1.81 0zm-1.08 3.2l0.1 -0.49 1.46 0c0.04,0 0.07,-0.01 0.09,-0.02 0.01,-0.02 0.03,-0.04 0.04,-0.08l0.04 -0.21c0,-0.01 0.01,-0.02 0.01,-0.04 0,-0.03 -0.03,-0.05 -0.09,-0.05l-1.14 0c-0.09,0 -0.16,-0.02 -0.21,-0.06 -0.04,-0.04 -0.06,-0.09 -0.06,-0.15 0,-0.03 0,-0.06 0.01,-0.09l0.12 -0.57c0.03,-0.13 0.07,-0.22 0.14,-0.28 0.07,-0.06 0.18,-0.09 0.33,-0.09l1.76 0 -0.1 0.47 -1.45 0c-0.05,0 -0.08,0.01 -0.1,0.03 -0.02,0.02 -0.03,0.05 -0.04,0.09l-0.04 0.17c0,0.01 0,0.02 0,0.04 0,0.05 0.03,0.07 0.08,0.07l1.16 0c0.09,0 0.16,0.02 0.21,0.06 0.04,0.04 0.06,0.09 0.06,0.15 0,0.02 0,0.03 0,0.05 0,0.01 0,0.02 -0.01,0.04l-0.12 0.59c-0.03,0.12 -0.08,0.21 -0.15,0.28 -0.07,0.06 -0.18,0.09 -0.33,0.09l-1.77 0zm3.41 0l0.1 -0.51 0.71 0c0.04,0 0.07,-0.01 0.09,-0.02 0.02,-0.02 0.03,-0.05 0.04,-0.1l0.19 -0.86c0,-0.01 0,-0.03 0,-0.05 0,-0.03 0,-0.05 -0.02,-0.06 -0.01,-0.01 -0.03,-0.01 -0.07,-0.01l-0.91 0 -0.54 2.5 -0.58 0 0.64 -3.02 1.8 0c0.12,0 0.21,0.02 0.26,0.06 0.05,0.04 0.07,0.11 0.07,0.2 0,0.05 0,0.1 -0.01,0.16l-0.28 1.29c-0.03,0.14 -0.08,0.25 -0.17,0.32 -0.08,0.06 -0.19,0.1 -0.32,0.1l-1 0zm2.21 0c-0.12,0 -0.2,-0.02 -0.26,-0.07 -0.05,-0.04 -0.07,-0.1 -0.07,-0.19 0,-0.04 0,-0.09 0.02,-0.16l0.27 -1.29c0.03,-0.15 0.08,-0.25 0.15,-0.32 0.08,-0.07 0.19,-0.1 0.34,-0.1l1.44 0c0.13,0 0.21,0.02 0.26,0.06 0.06,0.04 0.08,0.1 0.08,0.19 0,0.04 -0.01,0.09 -0.02,0.17l-0.27 1.29c-0.03,0.14 -0.09,0.25 -0.16,0.31 -0.07,0.07 -0.18,0.11 -0.34,0.11l-1.44 0zm1.58 -1.5c0,-0.03 0,-0.05 0,-0.06 0,-0.04 -0.03,-0.06 -0.11,-0.06l-0.83 0c-0.05,0 -0.08,0.01 -0.1,0.02 -0.02,0.02 -0.03,0.05 -0.04,0.1l-0.18 0.86c0,0.01 0,0.02 0,0.03 -0.01,0.01 -0.01,0.02 -0.01,0.03 0,0.03 0.03,0.05 0.1,0.05l0.83 0c0.05,0 0.09,0 0.11,-0.02 0.02,-0.02 0.04,-0.05 0.04,-0.09l0.19 -0.86zm0.69 1.5l0.45 -2.13 0.57 0 -0.05 0.23c0.05,-0.08 0.11,-0.14 0.18,-0.18 0.06,-0.03 0.14,-0.05 0.24,-0.05l0.61 0 -0.11 0.51 -0.85 0c-0.04,0 -0.07,0.01 -0.09,0.02 -0.02,0.02 -0.04,0.05 -0.05,0.1l-0.31 1.5 -0.59 0zm2.29 0c-0.11,0 -0.2,-0.02 -0.25,-0.07 -0.05,-0.04 -0.08,-0.1 -0.08,-0.19 0,-0.04 0.01,-0.09 0.02,-0.16l0.49 -2.3 0.59 0 -0.13 0.59 0.51 0 -0.09 0.46 -0.51 0 -0.24 1.09c0,0.03 0,0.05 0,0.05 0,0.04 0.03,0.06 0.09,0.06l0.38 0 -0.09 0.47 -0.69 0zm-6.83 -3.2l0.45 -2.13 0.59 0 -0.45 2.13 -0.59 0zm0.5 -2.38l0.14 -0.64 0.59 0 -0.14 0.64 -0.59 0zm1.21 2.38l-0.38 -2.13 0.64 0 0.24 1.55 0.94 -1.55 0.6 0 -1.33 2.13 -0.71 0zm1.89 0l0.45 -2.13 0.58 0 -0.45 2.13 -0.58 0zm0.5 -2.38l0.13 -0.64 0.6 0 -0.14 0.64 -0.59 0zm0.52 2.38l0.1 -0.47 1.46 -1.16 -1.21 0 0.1 -0.5 2 0 -0.09 0.42 -1.44 1.2 1.19 0 -0.11 0.51 -2 0zm2.44 0l0.45 -2.13 0.59 0 -0.45 2.13 -0.59 0zm0.5 -2.38l0.14 -0.64 0.59 0 -0.13 0.64 -0.6 0zm0.93 2.38c-0.12,0 -0.2,-0.02 -0.25,-0.06 -0.05,-0.04 -0.08,-0.11 -0.08,-0.19 0,-0.04 0.01,-0.1 0.02,-0.17l0.27 -1.29c0.03,-0.15 0.09,-0.25 0.16,-0.32 0.07,-0.07 0.18,-0.1 0.33,-0.1l1.45 0c0.12,0 0.21,0.02 0.26,0.06 0.05,0.04 0.07,0.11 0.07,0.19 0,0.04 0,0.1 -0.02,0.17l-0.27 1.29c-0.03,0.14 -0.08,0.25 -0.15,0.32 -0.08,0.06 -0.19,0.1 -0.34,0.1l-1.45 0zm1.58 -1.5c0,-0.03 0.01,-0.05 0.01,-0.05 0,-0.05 -0.04,-0.07 -0.12,-0.07l-0.83 0c-0.04,0 -0.08,0.01 -0.09,0.02 -0.02,0.02 -0.04,0.05 -0.04,0.1l-0.18 0.86c-0.01,0.01 -0.01,0.02 -0.01,0.03 0,0.01 0,0.02 0,0.03 0,0.04 0.03,0.06 0.09,0.06l0.83 0c0.05,0 0.09,-0.01 0.11,-0.03 0.02,-0.02 0.04,-0.05 0.05,-0.09l0.18 -0.86zm2.39 1.5l0.32 -1.5c0,-0.03 0.01,-0.05 0.01,-0.05 0,-0.05 -0.04,-0.07 -0.11,-0.07l-0.88 0c-0.04,0 -0.07,0.01 -0.09,0.02 -0.02,0.02 -0.03,0.05 -0.05,0.1l-0.31 1.5 -0.59 0 0.45 -2.13 0.57 0 -0.05 0.23c0.1,-0.15 0.24,-0.23 0.41,-0.23l0.96 0c0.11,0 0.2,0.02 0.25,0.06 0.05,0.04 0.08,0.1 0.08,0.2 0,0.05 -0.01,0.1 -0.02,0.16l-0.36 1.71 -0.59 0z"/>
 </g>
</svg>
