<svg width="225" height="40" viewBox="0 0 225 40" fill="none" xmlns="http://www.w3.org/2000/svg">
<g clip-path="url(#clip0)">
<path fill-rule="evenodd" clip-rule="evenodd" d="M23.4333 38.281C31.4843 34.9286 36.3148 28.154 37 17.3985C37.2398 11.6715 35.5611 6.88737 32.0667 3.91912C27.8528 0.671497 24.2898 -0.0618366 6.78333 0.182608C2.36389 26.2334 0.102778 39.4334 0 39.8175C20.6241 40.0271 23.4333 38.281 23.4333 38.281ZM8.4963 2.208C5.68704 18.3763 2.39815 37.5477 2.36389 37.7921C10.1065 38.0017 16.4102 38.1064 21.2065 36.8493C26.2769 35.4874 29.6 32.6588 31.8611 28.7477C33.7796 25.4651 34.9787 21.554 35.0472 17.0493C35.15 9.40166 31.8954 5.17626 27.3389 3.46515C22.0972 1.50959 15.1769 2.27785 8.4963 2.208Z" fill="black"/>
<path fill-rule="evenodd" clip-rule="evenodd" d="M27.9213 19.5637C28.1954 16.0018 27.5444 12.6145 26.0028 10.6938C24.1185 8.56366 22.9537 7.2716 14.1833 7.55096C11.3741 23.7192 9.86666 32.2399 9.8324 32.4494C17.6435 32.9383 26.1398 31.9256 27.9213 19.5637ZM26.037 18.4811C26.2083 9.68112 21.2065 9.36684 15.8278 9.54144C13.738 21.5541 12.2305 30.3192 12.162 30.4938C18.4657 31.1224 25.4889 28.2938 26.037 18.4811Z" fill="black"/>
</g>
<path d="M48.12 16H51.2C54.084 16 55.75 14.334 55.75 11.52V10.68C55.75 7.838 54.112 6.2 51.2 6.2H48.12V16ZM51.2 7.404C53.244 7.404 54.378 8.524 54.378 10.68V11.52C54.378 13.704 53.272 14.796 51.2 14.796H49.436V7.404H51.2ZM57.6776 16H58.9376V9H57.6776V16ZM58.3076 7.936C58.7836 7.936 59.1476 7.572 59.1476 7.096C59.1476 6.62 58.7836 6.256 58.3076 6.256C57.8316 6.256 57.4676 6.62 57.4676 7.096C57.4676 7.572 57.8316 7.936 58.3076 7.936ZM62.9677 16H64.5077L67.0277 9H65.6837L63.7377 14.6L61.6797 9H60.3077L62.9677 16ZM68.3964 16H69.6564V9H68.3964V16ZM69.0264 7.936C69.5024 7.936 69.8664 7.572 69.8664 7.096C69.8664 6.62 69.5024 6.256 69.0264 6.256C68.5504 6.256 68.1864 6.62 68.1864 7.096C68.1864 7.572 68.5504 7.936 69.0264 7.936ZM71.4464 10.148H75.3104L71.3064 14.852V16H76.7664V14.852H72.7624L76.7664 10.148V9H71.4464V10.148ZM78.3495 16H79.6095V9H78.3495V16ZM78.9795 7.936C79.4555 7.936 79.8195 7.572 79.8195 7.096C79.8195 6.62 79.4555 6.256 78.9795 6.256C78.5035 6.256 78.1395 6.62 78.1395 7.096C78.1395 7.572 78.5035 7.936 78.9795 7.936ZM84.6195 16.112C86.5655 16.112 87.8395 14.838 87.8395 12.766V12.234C87.8395 10.148 86.5795 8.888 84.6195 8.888C82.6735 8.888 81.3995 10.162 81.3995 12.234V12.766C81.3995 14.852 82.6595 16.112 84.6195 16.112ZM84.6195 14.908C83.4575 14.908 82.7155 14.166 82.7155 12.766V12.234C82.7155 10.82 83.4435 10.092 84.6195 10.092C85.7815 10.092 86.5235 10.834 86.5235 12.234V12.766C86.5235 14.18 85.7955 14.908 84.6195 14.908ZM89.5168 16H90.7768V11.8C90.8048 10.792 91.5328 10.092 92.6668 10.092C93.6888 10.092 94.2768 10.68 94.2768 11.87V16H95.5368V11.87C95.5368 9.938 94.4868 8.888 92.8768 8.888C91.8968 8.888 91.1128 9.28 90.6228 9.966L90.4968 9H89.5168V16ZM97.1495 12.962H101.49V11.758H97.1495V12.962ZM105.555 16.112C107.501 16.112 108.355 15.258 108.355 14.04C108.355 11.17 104.211 12.388 104.211 10.89C104.211 10.344 104.547 10.008 105.555 10.008C106.437 10.008 106.759 10.344 106.899 11.03H108.215C108.075 9.728 107.221 8.888 105.555 8.888C103.749 8.888 102.895 9.742 102.895 10.89C102.895 13.564 107.039 12.346 107.039 14.04C107.039 14.656 106.703 14.992 105.555 14.992C104.533 14.992 104.211 14.656 104.071 13.83H102.755C102.895 15.258 103.749 16.112 105.555 16.112ZM113.426 16.112C115.008 16.112 116.198 14.922 116.198 12.766V12.234C116.198 10.064 115.022 8.888 113.44 8.888C112.432 8.888 111.634 9.266 111.144 10.008L111.018 9H110.038V18.8H111.298V15.202C111.788 15.804 112.516 16.112 113.426 16.112ZM113.09 14.908C112.054 14.908 111.298 14.138 111.298 12.766V12.136C111.326 10.806 112.082 10.092 113.09 10.092C114.196 10.092 114.882 10.792 114.882 12.234V12.766C114.882 14.236 114.21 14.908 113.09 14.908ZM120.672 16.112C122.618 16.112 123.892 14.838 123.892 12.766V12.234C123.892 10.148 122.632 8.888 120.672 8.888C118.726 8.888 117.452 10.162 117.452 12.234V12.766C117.452 14.852 118.712 16.112 120.672 16.112ZM120.672 14.908C119.51 14.908 118.768 14.166 118.768 12.766V12.234C118.768 10.82 119.496 10.092 120.672 10.092C121.834 10.092 122.576 10.834 122.576 12.234V12.766C122.576 14.18 121.848 14.908 120.672 14.908ZM125.57 16H126.83V11.8C126.858 10.792 127.572 10.092 128.86 10.092H129.56V8.888H128.86C127.936 8.888 127.152 9.266 126.676 9.952L126.55 9H125.57V16ZM130.321 10.148H131.581V13.942C131.581 15.258 132.323 16 133.639 16H134.801V14.852H133.821C133.177 14.852 132.841 14.516 132.841 13.802V10.148H134.661V9H132.841V7.04H131.581V9H130.321V10.148ZM139.286 12.962H147.826V11.758H139.286V12.962ZM50.78 34.112C52.418 34.112 53.37 33.174 53.65 31.83H52.306C52.096 32.474 51.662 32.908 50.71 32.908C49.674 32.908 48.946 32.18 48.946 30.766V30.234C48.946 28.806 49.66 28.092 50.71 28.092C51.648 28.092 52.096 28.54 52.306 29.03H53.65C53.37 27.84 52.418 26.888 50.78 26.888C48.862 26.888 47.63 28.12 47.63 30.234V30.766C47.63 32.894 48.848 34.112 50.78 34.112ZM59.5984 34H60.8584V27H55.1184V34H56.3784V28.148H59.5984V34ZM65.7523 34.112C67.6983 34.112 68.9723 32.838 68.9723 30.766V30.234C68.9723 28.148 67.7123 26.888 65.7523 26.888C63.8063 26.888 62.5323 28.162 62.5323 30.234V30.766C62.5323 32.852 63.7923 34.112 65.7523 34.112ZM65.7523 32.908C64.5903 32.908 63.8483 32.166 63.8483 30.766V30.234C63.8483 28.82 64.5763 28.092 65.7523 28.092C66.9143 28.092 67.6563 28.834 67.6563 30.234V30.766C67.6563 32.18 66.9283 32.908 65.7523 32.908ZM74.0376 34.112C75.6196 34.112 76.8096 32.922 76.8096 30.766V30.234C76.8096 28.064 75.6336 26.888 74.0516 26.888C73.0436 26.888 72.2456 27.266 71.7556 28.008L71.6296 27H70.6496V36.8H71.9096V33.202C72.3996 33.804 73.1276 34.112 74.0376 34.112ZM73.7016 32.908C72.6656 32.908 71.9096 32.138 71.9096 30.766V30.136C71.9376 28.806 72.6936 28.092 73.7016 28.092C74.8076 28.092 75.4936 28.792 75.4936 30.234V30.766C75.4936 32.236 74.8216 32.908 73.7016 32.908ZM77.4402 28.148H79.6802V34H80.9402V28.148H83.1802V27H77.4402V28.148ZM89.2729 34H90.5329V27H88.9089L86.5429 31.06L85.7729 32.502V27H84.5129V34H86.1369L88.5029 29.94L89.2729 28.498V34ZM92.634 34H95.574C97.464 34 98.234 33.23 98.234 31.97C98.234 31.284 97.87 30.682 97.086 30.36C97.674 30.024 97.954 29.52 97.954 28.946C97.954 27.77 97.184 27 95.294 27H92.634V34ZM95.574 30.976C96.582 30.976 96.918 31.312 96.918 31.9C96.918 32.516 96.582 32.852 95.574 32.852H93.894V30.976H95.574ZM95.294 28.148C96.316 28.148 96.638 28.47 96.638 29.016C96.638 29.562 96.316 29.884 95.294 29.884H93.894V28.148H95.294ZM104.667 34H105.927V27H104.667V29.856H101.167V27H99.9074V34H101.167V31.004H104.667V34ZM109.779 34.112C110.801 34.112 111.641 33.65 112.145 32.852L112.299 34H113.279V29.24C113.279 27.798 112.369 26.888 110.619 26.888C108.771 26.888 107.889 27.77 107.819 28.96H109.219C109.289 28.4 109.681 28.008 110.619 28.008C111.571 28.008 112.019 28.456 112.019 29.24V29.758H110.619C108.393 29.758 107.539 30.612 107.539 32.04C107.539 33.328 108.323 34.112 109.779 34.112ZM109.919 32.992C109.247 32.992 108.855 32.6 108.855 32.012C108.855 31.298 109.331 30.822 110.619 30.822H112.019V31.074C112.019 32.11 111.137 32.992 109.919 32.992ZM114.882 29.296C114.882 30.248 115.232 30.934 116.114 31.298L114.602 34H116.002L117.304 31.55C117.486 31.564 117.682 31.564 117.892 31.564H119.082V34H120.342V27H117.892C115.708 27 114.882 27.826 114.882 29.296ZM116.198 29.296C116.198 28.54 116.59 28.148 117.892 28.148H119.082V30.416H117.892C116.59 30.416 116.198 30.024 116.198 29.296ZM128.669 34.112H129.159V36.8H130.419V34.112H130.909C132.771 34.112 134.059 32.838 134.059 30.766V30.234C134.059 28.148 132.799 26.888 130.909 26.888H130.419V24.2H129.159V26.888H128.669C126.793 26.888 125.519 28.162 125.519 30.234V30.766C125.519 32.852 126.779 34.112 128.669 34.112ZM126.835 30.766V30.234C126.835 28.806 127.549 28.092 128.669 28.092H129.159V32.908H128.669C127.563 32.908 126.835 32.18 126.835 30.766ZM130.909 28.092C132.015 28.092 132.743 28.82 132.743 30.234V30.766C132.743 32.194 132.029 32.908 130.909 32.908H130.419V28.092H130.909ZM138.541 34.112C140.487 34.112 141.761 32.838 141.761 30.766V30.234C141.761 28.148 140.501 26.888 138.541 26.888C136.595 26.888 135.321 28.162 135.321 30.234V30.766C135.321 32.852 136.581 34.112 138.541 34.112ZM138.541 32.908C137.379 32.908 136.637 32.166 136.637 30.766V30.234C136.637 28.82 137.365 28.092 138.541 28.092C139.703 28.092 140.445 28.834 140.445 30.234V30.766C140.445 32.18 139.717 32.908 138.541 32.908ZM146.827 34.112C148.409 34.112 149.599 32.922 149.599 30.766V30.234C149.599 28.064 148.423 26.888 146.841 26.888C145.833 26.888 145.035 27.266 144.545 28.008L144.419 27H143.439V36.8H144.699V33.202C145.189 33.804 145.917 34.112 146.827 34.112ZM146.491 32.908C145.455 32.908 144.699 32.138 144.699 30.766V30.136C144.727 28.806 145.483 28.092 146.491 28.092C147.597 28.092 148.283 28.792 148.283 30.234V30.766C148.283 32.236 147.611 32.908 146.491 32.908ZM154.353 32.32H155.613L156.733 29.94L157.433 28.414V34H158.693V27H156.901L155.011 30.976L153.121 27H151.273V34H152.533V28.428L153.219 29.94L154.353 32.32ZM162.538 34.112C163.56 34.112 164.4 33.65 164.904 32.852L165.058 34H166.038V29.24C166.038 27.798 165.128 26.888 163.378 26.888C161.53 26.888 160.648 27.77 160.578 28.96H161.978C162.048 28.4 162.44 28.008 163.378 28.008C164.33 28.008 164.778 28.456 164.778 29.24V29.758H163.378C161.152 29.758 160.298 30.612 160.298 32.04C160.298 33.328 161.082 34.112 162.538 34.112ZM162.678 32.992C162.006 32.992 161.614 32.6 161.614 32.012C161.614 31.298 162.09 30.822 163.378 30.822H164.778V31.074C164.778 32.11 163.896 32.992 162.678 32.992ZM176.322 34H177.582V27H176.322V29.856H172.822V27H171.562V34H172.822V31.004H176.322V34ZM181.433 34.112C182.455 34.112 183.295 33.65 183.799 32.852L183.953 34H184.933V29.24C184.933 27.798 184.023 26.888 182.273 26.888C180.425 26.888 179.543 27.77 179.473 28.96H180.873C180.943 28.4 181.335 28.008 182.273 28.008C183.225 28.008 183.673 28.456 183.673 29.24V29.758H182.273C180.047 29.758 179.193 30.612 179.193 32.04C179.193 33.328 179.977 34.112 181.433 34.112ZM181.573 32.992C180.901 32.992 180.509 32.6 180.509 32.012C180.509 31.298 180.985 30.822 182.273 30.822H183.673V31.074C183.673 32.11 182.791 32.992 181.573 32.992ZM192.766 26.888C191.016 26.888 190.176 27.728 190.036 29.03H191.324C191.464 28.428 191.828 28.064 192.766 28.064C193.704 28.064 194.068 28.428 194.068 28.96C194.068 29.52 193.704 29.856 192.766 29.856H191.996V31.004H192.766C193.872 31.004 194.278 31.382 194.278 31.97C194.278 32.53 193.872 32.936 192.766 32.936C191.66 32.936 191.254 32.53 191.114 31.83H189.826C189.966 33.244 190.834 34.112 192.766 34.112C194.698 34.112 195.566 33.244 195.566 32.04C195.566 31.34 195.216 30.766 194.46 30.43C195.062 30.108 195.356 29.562 195.356 28.89C195.356 27.728 194.516 26.888 192.766 26.888ZM199.001 34.112C200.023 34.112 200.863 33.65 201.367 32.852L201.521 34H202.501V29.24C202.501 27.798 201.591 26.888 199.841 26.888C197.993 26.888 197.111 27.77 197.041 28.96H198.441C198.511 28.4 198.903 28.008 199.841 28.008C200.793 28.008 201.241 28.456 201.241 29.24V29.758H199.841C197.615 29.758 196.761 30.612 196.761 32.04C196.761 33.328 197.545 34.112 199.001 34.112ZM199.141 32.992C198.469 32.992 198.077 32.6 198.077 32.012C198.077 31.298 198.553 30.822 199.841 30.822H201.241V31.074C201.241 32.11 200.359 32.992 199.141 32.992ZM208.865 34H210.405L207.801 30.332L210.125 27H208.641L206.765 29.786H205.785V27H204.525V34H205.785V30.934H206.751L208.865 34ZM213.275 34.112C214.297 34.112 215.137 33.65 215.641 32.852L215.795 34H216.775V29.24C216.775 27.798 215.865 26.888 214.115 26.888C212.267 26.888 211.385 27.77 211.315 28.96H212.715C212.785 28.4 213.177 28.008 214.115 28.008C215.067 28.008 215.515 28.456 215.515 29.24V29.758H214.115C211.889 29.758 211.035 30.612 211.035 32.04C211.035 33.328 211.819 34.112 213.275 34.112ZM213.415 32.992C212.743 32.992 212.351 32.6 212.351 32.012C212.351 31.298 212.827 30.822 214.115 30.822H215.515V31.074C215.515 32.11 214.633 32.992 213.415 32.992ZM221.108 26.888C219.358 26.888 218.518 27.728 218.378 29.03H219.666C219.806 28.428 220.17 28.064 221.108 28.064C222.046 28.064 222.41 28.428 222.41 28.96C222.41 29.52 222.046 29.856 221.108 29.856H220.338V31.004H221.108C222.214 31.004 222.62 31.382 222.62 31.97C222.62 32.53 222.214 32.936 221.108 32.936C220.002 32.936 219.596 32.53 219.456 31.83H218.168C218.308 33.244 219.176 34.112 221.108 34.112C223.04 34.112 223.908 33.244 223.908 32.04C223.908 31.34 223.558 30.766 222.802 30.43C223.404 30.108 223.698 29.562 223.698 28.89C223.698 27.728 222.858 26.888 221.108 26.888Z" fill="black"/>
<defs>
<clipPath id="clip0">
<rect width="37" height="40" fill="white"/>
</clipPath>
</defs>
</svg>
