<svg width="105" height="28" viewBox="0 0 105 28" fill="none" xmlns="http://www.w3.org/2000/svg">
<rect x="0.5" y="0.5" width="104" height="27" rx="4.5" stroke="black"/>
<path d="M21.96 19H23.64L26.16 9.2H24.816L22.814 17.46L20.63 9.2H18.95L16.906 17.446L14.792 9.2H13.42L16.08 19H17.76L19.79 10.796L21.96 19ZM27.6262 19H28.8862V14.8C28.9142 13.792 29.6422 13.092 30.7762 13.092C31.7982 13.092 32.3862 13.68 32.3862 14.87V19H33.6462V14.87C33.6462 12.938 32.5962 11.888 30.9862 11.888C30.0762 11.888 29.3482 12.224 28.8862 12.826V9.2H27.6262V19ZM37.4289 19.112C38.4509 19.112 39.2909 18.65 39.7949 17.852L39.9489 19H40.9289V14.24C40.9289 12.798 40.0189 11.888 38.2689 11.888C36.4209 11.888 35.5389 12.77 35.4689 13.96H36.8689C36.9389 13.4 37.3309 13.008 38.2689 13.008C39.2209 13.008 39.6689 13.456 39.6689 14.24V14.758H38.2689C36.0429 14.758 35.1889 15.612 35.1889 17.04C35.1889 18.328 35.9729 19.112 37.4289 19.112ZM37.5689 17.992C36.8969 17.992 36.5049 17.6 36.5049 17.012C36.5049 16.298 36.9809 15.822 38.2689 15.822H39.6689V16.074C39.6689 17.11 38.7869 17.992 37.5689 17.992ZM41.9756 13.148H43.2356V16.942C43.2356 18.258 43.9776 19 45.2936 19H46.4556V17.852H45.4756C44.8316 17.852 44.4956 17.516 44.4956 16.802V13.148H46.3156V12H44.4956V10.04H43.2356V12H41.9756V13.148ZM50.2405 19.112C52.1865 19.112 53.0405 18.258 53.0405 17.04C53.0405 14.17 48.8965 15.388 48.8965 13.89C48.8965 13.344 49.2325 13.008 50.2405 13.008C51.1225 13.008 51.4445 13.344 51.5845 14.03H52.9005C52.7605 12.728 51.9065 11.888 50.2405 11.888C48.4345 11.888 47.5805 12.742 47.5805 13.89C47.5805 16.564 51.7245 15.346 51.7245 17.04C51.7245 17.656 51.3885 17.992 50.2405 17.992C49.2185 17.992 48.8965 17.656 48.7565 16.83H47.4405C47.5805 18.258 48.4345 19.112 50.2405 19.112ZM61.1358 19H62.5638L58.9938 9.2H57.4538L53.8838 19H55.2558L56.2078 16.312H60.1838L61.1358 19ZM57.4818 12.756L58.2098 10.67L58.9238 12.756L59.7498 15.108H56.6418L57.4818 12.756ZM67.2173 19.112C68.7993 19.112 69.9893 17.922 69.9893 15.766V15.234C69.9893 13.064 68.8133 11.888 67.2313 11.888C66.2233 11.888 65.4253 12.266 64.9353 13.008L64.8093 12H63.8293V21.8H65.0893V18.202C65.5793 18.804 66.3073 19.112 67.2173 19.112ZM66.8813 17.908C65.8453 17.908 65.0893 17.138 65.0893 15.766V15.136C65.1173 13.806 65.8733 13.092 66.8813 13.092C67.9873 13.092 68.6733 13.792 68.6733 15.234V15.766C68.6733 17.236 68.0013 17.908 66.8813 17.908ZM75.0513 19.112C76.6333 19.112 77.8233 17.922 77.8233 15.766V15.234C77.8233 13.064 76.6473 11.888 75.0653 11.888C74.0573 11.888 73.2593 12.266 72.7693 13.008L72.6433 12H71.6633V21.8H72.9233V18.202C73.4133 18.804 74.1413 19.112 75.0513 19.112ZM74.7153 17.908C73.6793 17.908 72.9233 17.138 72.9233 15.766V15.136C72.9513 13.806 73.7073 13.092 74.7153 13.092C75.8213 13.092 76.5073 13.792 76.5073 15.234V15.766C76.5073 17.236 75.8353 17.908 74.7153 17.908Z" fill="black"/>
<path d="M84 19L92 11M92 11H86M92 11V17" stroke="black"/>
</svg>
