<?xml version="1.0" encoding="UTF-8"?>
<!DOCTYPE svg PUBLIC "-//W3C//DTD SVG 1.1//EN" "http://www.w3.org/Graphics/SVG/1.1/DTD/svg11.dtd">
<!-- Creator: CorelDRAW 2020 (64-Bit) -->
<svg xmlns="http://www.w3.org/2000/svg" xml:space="preserve" width="28.3104mm" height="7.4084mm" version="1.1" style="shape-rendering:geometricPrecision; text-rendering:geometricPrecision; image-rendering:optimizeQuality; fill-rule:evenodd; clip-rule:evenodd"
viewBox="0 0 2831.04 740.84"
 xmlns:xlink="http://www.w3.org/1999/xlink"
 xmlns:xodm="http://www.corel.com/coreldraw/odm/2003">
 <defs>
  <style type="text/css">
   <![CDATA[
    .str0 {stroke:black;stroke-width:26.46;stroke-miterlimit:22.9256}
    .fil0 {fill:none}
    .fil1 {fill:none;fill-rule:nonzero}
    .fil2 {fill:black;fill-rule:nonzero}
   ]]>
  </style>
 </defs>
 <g id="Слой_x0020_1">
  <metadata id="CorelCorpID_0Corel-Layer"/>
  <path class="fil0 str0" d="M132.29 13.23l2566.46 0c65.74,0 119.06,53.32 119.06,119.06l0 476.26c0,65.73 -53.32,119.05 -119.06,119.05l-2566.46 0.01c-65.73,-0.01 -119.05,-53.33 -119.05,-119.07l-0.01 -476.25c0.01,-65.74 53.33,-119.06 119.07,-119.06z"/>
  <path class="fil1 str0" d="M2275.42 502.71l211.66 -211.67m0 0l-158.75 0m158.75 0l0 158.76"/>
  <path class="fil2" d="M986.67 242.92l73.5 195.42 73.39 -195.42 57.25 0 0 254.94 -44.16 0 0 -84.02 4.42 -112.42 -75.3 196.44 -31.73 0 -75.06 -196.26 4.36 112.24 0 84.02 -44.1 0 0 -254.94 57.43 0zm401.24 195.6l-98.73 0 -20.68 59.34 -46.01 0 96.27 -254.94 39.74 0 96.46 254.94 -46.2 0 -20.85 -59.34zm-86.3 -35.74l73.87 0 -36.94 -105.72 -36.93 105.72zm257.7 -14.16l-30.12 0 0 109.24 -44.11 0 0 -254.94 44.11 0 0 107.15 24.38 0 74.94 -107.15 54.26 0 -87.55 122.03 95.26 132.91 -53.24 0 -77.93 -109.24zm342.49 26.23c-2.57,27.19 -12.61,48.41 -30.12,63.65 -17.51,15.24 -40.82,22.89 -69.86,22.89 -20.32,0 -38.19,-4.84 -53.67,-14.47 -15.47,-9.62 -27.43,-23.3 -35.79,-41.05 -8.43,-17.75 -12.79,-38.37 -13.15,-61.8l0 -23.84c0,-24.03 4.24,-45.24 12.79,-63.53 8.48,-18.34 20.74,-32.45 36.63,-42.37 15.96,-9.92 34.36,-14.88 55.28,-14.88 28.09,0 50.74,7.65 67.95,22.95 17.15,15.24 27.13,36.87 29.94,64.78l-44.16 0c-2.09,-18.35 -7.41,-31.55 -16.02,-39.68 -8.55,-8.13 -21.15,-12.19 -37.71,-12.19 -19.24,0 -34.06,7.05 -44.4,21.09 -10.34,14.11 -15.6,34.72 -15.84,61.92l0 22.59c0,27.55 4.9,48.52 14.82,63.04 9.86,14.47 24.27,21.7 43.33,21.7 17.39,0 30.42,-3.95 39.2,-11.71 8.73,-7.83 14.29,-20.86 16.62,-39.09l44.16 0z"/>
 </g>
</svg>
