<?xml version="1.0" encoding="UTF-8"?>
<!DOCTYPE svg PUBLIC "-//W3C//DTD SVG 1.1//EN" "http://www.w3.org/Graphics/SVG/1.1/DTD/svg11.dtd">
<!-- Creator: CorelDRAW 2020 (64-Bit) -->
<svg xmlns="http://www.w3.org/2000/svg" xml:space="preserve" width="315px" height="94px" version="1.1" style="shape-rendering:geometricPrecision; text-rendering:geometricPrecision; image-rendering:optimizeQuality; fill-rule:evenodd; clip-rule:evenodd"
viewBox="0 0 39.9 11.86"
 xmlns:xlink="http://www.w3.org/1999/xlink"
 xmlns:xodm="http://www.corel.com/coreldraw/odm/2003">
 <defs>
  <style type="text/css">
   <![CDATA[
    .str1 {stroke:black;stroke-width:0.4;stroke-miterlimit:22.9256}
    .str0 {stroke:black;stroke-width:0.4;stroke-miterlimit:22.9256}
    .fil3 {fill:none}
    .fil2 {fill:none;fill-rule:nonzero}
    .fil1 {fill:black;fill-rule:nonzero}
    .fil0 {fill:white;fill-rule:nonzero}
   ]]>
  </style>
 </defs>
 <g id="Слой_x0020_1">
  <metadata id="CorelCorpID_0Corel-Layer"/>
  <path class="fil0" d="M3.45 0l34.46 0c1.1,0 1.99,0.89 1.99,1.98l0 7.13c0,1.09 -0.89,1.98 -1.99,1.98l-34.46 0c-1.09,0 -1.98,-0.89 -1.98,-1.98l0 -7.13c0,-1.09 0.89,-1.98 1.98,-1.98z"/>
  <g id="_861412480">
   <path class="fil1" d="M5.4 4.08l1.24 0 0 3.4 0.52 0 0 -3.4 1.24 0 0 -0.48 -3 0 0 0.48zm3.83 3.45c0.75,0 1.11,-0.36 1.22,-0.91l-0.51 0c-0.11,0.29 -0.27,0.45 -0.71,0.45 -0.41,0 -0.71,-0.28 -0.72,-0.81l1.97 0 0 -0.27c0,-0.81 -0.51,-1.33 -1.25,-1.33 -0.73,0 -1.25,0.52 -1.25,1.33l0 0.21c0,0.82 0.51,1.33 1.25,1.33zm0 -2.41c0.42,0 0.67,0.22 0.72,0.7l-1.44 0c0.05,-0.47 0.33,-0.7 0.72,-0.7zm2.73 2.36l0.24 0 0 -0.45 -0.17 0c-0.26,0 -0.39,-0.14 -0.39,-0.42l0 -3.01 -0.49 0 0 3.07c0,0.52 0.28,0.81 0.81,0.81zm1.85 0.05c0.75,0 1.11,-0.36 1.22,-0.91l-0.51 0c-0.11,0.29 -0.27,0.45 -0.71,0.45 -0.42,0 -0.71,-0.28 -0.73,-0.81l1.98 0 0 -0.27c0,-0.81 -0.51,-1.33 -1.25,-1.33 -0.73,0 -1.25,0.52 -1.25,1.33l0 0.21c0,0.82 0.51,1.33 1.25,1.33zm0 -2.41c0.41,0 0.67,0.22 0.71,0.7l-1.43 0c0.05,-0.47 0.32,-0.7 0.72,-0.7zm2.84 2.3c0.36,0 0.65,-0.13 0.85,-0.36l0 0.42c0,0.51 -0.2,0.71 -0.68,0.71 -0.42,0 -0.57,-0.15 -0.63,-0.43l-0.5 0c0.06,0.54 0.39,0.88 1.13,0.88 0.77,0 1.18,-0.41 1.18,-1.16l0 -2.77 -0.39 0 -0.06 0.39c-0.19,-0.29 -0.5,-0.44 -0.9,-0.44 -0.63,0 -1.09,0.47 -1.09,1.27l0 0.22c0,0.81 0.46,1.27 1.09,1.27zm0.14 -0.48c-0.44,0 -0.71,-0.27 -0.71,-0.79l0 -0.22c0,-0.51 0.27,-0.79 0.71,-0.79 0.41,0 0.71,0.3 0.71,0.79l0 0.22c0,0.49 -0.3,0.79 -0.71,0.79zm2.04 0.54l0.49 0 0 -1.66c0.02,-0.4 0.3,-0.68 0.81,-0.68l0.28 0 0 -0.48 -0.28 0c-0.37,0 -0.68,0.15 -0.87,0.43l-0.05 -0.38 -0.38 0 0 2.77zm2.8 0.05c0.4,0 0.73,-0.19 0.93,-0.5l0.06 0.45 0.39 0 0 -1.88c0,-0.57 -0.36,-0.94 -1.05,-0.94 -0.73,0 -1.08,0.35 -1.11,0.83l0.55 0c0.03,-0.23 0.19,-0.38 0.56,-0.38 0.38,0 0.55,0.18 0.55,0.49l0 0.2 -0.55 0c-0.88,0 -1.22,0.34 -1.22,0.91 0,0.51 0.31,0.82 0.89,0.82zm0.05 -0.45c-0.27,0 -0.42,-0.15 -0.42,-0.39 0,-0.28 0.19,-0.47 0.7,-0.47l0.55 0 0 0.1c0,0.41 -0.35,0.76 -0.83,0.76zm2.13 0.4l0.5 0 0 -1.66c0.01,-0.41 0.3,-0.68 0.67,-0.68 0.38,0 0.61,0.23 0.61,0.71l0 1.63 0.5 0 0 -1.66c0.01,-0.4 0.29,-0.68 0.66,-0.68 0.38,0 0.61,0.23 0.61,0.71l0 1.63 0.5 0 0 -1.63c0,-0.77 -0.41,-1.19 -1,-1.19 -0.4,0 -0.73,0.19 -0.92,0.51 -0.17,-0.33 -0.47,-0.51 -0.85,-0.51 -0.36,0 -0.65,0.15 -0.84,0.43l-0.05 -0.38 -0.39 0 0 2.77z"/>
   <path class="fil2 str0" d="M30.25 7.48l3.17 -3.17m0 0l-2.38 0m2.38 0l0 2.38"/>
  </g>
  <path class="fil3 str1" d="M1.83 0.57l35.16 0c0.9,0 1.63,0.83 1.63,1.85l0 7.39c0,1.03 -0.73,1.85 -1.63,1.85l-35.16 0c-0.9,0 -1.63,-0.82 -1.63,-1.85l0 -7.39c0,-1.02 0.73,-1.85 1.63,-1.85z"/>
 </g>
</svg>
