<svg width="107" height="28" viewBox="0 0 107 28" fill="none" xmlns="http://www.w3.org/2000/svg">
<rect x="0.5" y="0.5" width="106" height="27" rx="4.5" stroke="black"/>
<path d="M14.12 19H17.55C20 19 20.98 18.02 20.98 16.242C20.98 15.164 20.49 14.324 19.44 13.904C20.294 13.456 20.7 12.714 20.7 11.818C20.7 10.18 19.72 9.2 17.27 9.2H14.12V19ZM17.55 14.548C19.062 14.548 19.608 15.094 19.608 16.172C19.608 17.25 19.062 17.796 17.55 17.796H15.436V14.548H17.55ZM17.27 10.404C18.782 10.404 19.328 10.95 19.328 11.888C19.328 12.826 18.782 13.372 17.27 13.372H15.436V10.404H17.27ZM28.5696 19H30.2216L26.5116 13.946L29.9416 9.2H28.3456L25.3916 13.358H24.1176V9.2H22.8016V19H24.1176V14.562H25.3636L28.5696 19ZM33.9945 19.112C35.9405 19.112 37.2145 17.838 37.2145 15.766V15.234C37.2145 13.148 35.9545 11.888 33.9945 11.888C32.0485 11.888 30.7745 13.162 30.7745 15.234V15.766C30.7745 17.852 32.0345 19.112 33.9945 19.112ZM33.9945 17.908C32.8325 17.908 32.0905 17.166 32.0905 15.766V15.234C32.0905 13.82 32.8185 13.092 33.9945 13.092C35.1565 13.092 35.8985 13.834 35.8985 15.234V15.766C35.8985 17.18 35.1705 17.908 33.9945 17.908ZM43.6518 19H44.9118V12H43.6518V14.856H40.1518V12H38.8918V19H40.1518V16.004H43.6518V19ZM46.2429 13.148H48.4829V19H49.7429V13.148H51.9829V12H46.2429V13.148ZM54.9289 19.112C55.9509 19.112 56.7909 18.65 57.2949 17.852L57.4489 19H58.4289V14.24C58.4289 12.798 57.5189 11.888 55.7689 11.888C53.9209 11.888 53.0389 12.77 52.9689 13.96H54.3689C54.4389 13.4 54.8309 13.008 55.7689 13.008C56.7209 13.008 57.1689 13.456 57.1689 14.24V14.758H55.7689C53.5429 14.758 52.6889 15.612 52.6889 17.04C52.6889 18.328 53.4729 19.112 54.9289 19.112ZM55.0689 17.992C54.3969 17.992 54.0049 17.6 54.0049 17.012C54.0049 16.298 54.4809 15.822 55.7689 15.822H57.1689V16.074C57.1689 17.11 56.2869 17.992 55.0689 17.992ZM64.7923 19H66.3323L63.7283 15.332L66.0523 12H64.5683L62.6923 14.786H61.7123V12H60.4523V19H61.7123V15.934H62.6783L64.7923 19ZM66.8191 13.148H69.0591V19H70.3191V13.148H72.5591V12H66.8191V13.148ZM76.3484 19.112C78.2384 19.112 79.1484 18.202 79.4284 16.83H78.1404C77.8604 17.558 77.4544 17.964 76.3484 17.964C75.2984 17.964 74.5564 17.264 74.5144 15.906H79.4984V15.234C79.4984 13.176 78.2104 11.888 76.3484 11.888C74.5004 11.888 73.1984 13.19 73.1984 15.234V15.766C73.1984 17.838 74.4724 19.112 76.3484 19.112ZM76.3484 13.036C77.3984 13.036 78.0424 13.582 78.1544 14.814H74.5284C74.6544 13.624 75.3544 13.036 76.3484 13.036Z" fill="black"/>
<path d="M86 19L94 11M94 11H88M94 11V17" stroke="black"/>
</svg>
