<?xml version="1.0" encoding="UTF-8"?>
<!DOCTYPE svg PUBLIC "-//W3C//DTD SVG 1.1//EN" "http://www.w3.org/Graphics/SVG/1.1/DTD/svg11.dtd">
<!-- Creator: CorelDRAW 2020 (64-Bit) -->
<svg xmlns="http://www.w3.org/2000/svg" xml:space="preserve" width="500px" height="212px" version="1.1" style="shape-rendering:geometricPrecision; text-rendering:geometricPrecision; image-rendering:optimizeQuality; fill-rule:evenodd; clip-rule:evenodd"
viewBox="0 0 361.05 152.95"
 xmlns:xlink="http://www.w3.org/1999/xlink"
 xmlns:xodm="http://www.corel.com/coreldraw/odm/2003">
 <defs>
  <style type="text/css">
   <![CDATA[
    .fil0 {fill:#2B2A29;fill-rule:nonzero}
   ]]>
  </style>
 </defs>
 <g id="Слой_x0020_1">
  <metadata id="CorelCorpID_0Corel-Layer"/>
  <g id="_814156368">
   <path class="fil0" d="M23.21 64.94c-2.53,0 -4.36,-0.43 -5.47,-1.31 -1.12,-0.87 -1.67,-2.24 -1.67,-4.11 0,-0.85 0.15,-2.02 0.45,-3.53l5.88 -27.86c0.66,-3.08 1.85,-5.34 3.57,-6.78 1.72,-1.45 4.02,-2.17 6.92,-2.17l21.62 0 -2.35 10.94 -15.11 0c-0.96,0 -1.64,0.17 -2.04,0.5 -0.39,0.33 -0.7,1.01 -0.94,2.03l-3.89 18.55c-0.12,0.6 -0.19,0.99 -0.19,1.17 0,0.91 0.7,1.36 2.08,1.36l19.63 0 11.4 -53.73 12.75 0 -13.74 64.94 -38.9 0zm48.84 0l9.68 -45.76 12.67 0 -9.68 45.76 -12.67 0zm10.86 -51.19l2.89 -13.75 12.76 0 -2.9 13.75 -12.75 0zm26.05 51.19l-8.14 -45.76 13.66 0 5.24 33.28 20.08 -33.28 13.03 0 -28.67 45.76 -15.2 0zm40.52 0l9.68 -45.76 12.66 0 -9.68 45.76 -12.66 0zm10.86 -51.19l2.89 -13.75 12.75 0 -2.89 13.75 -12.75 0zm11.21 51.19l2.08 -10.04 31.48 -25.05 -26.05 0 2.26 -10.67 42.97 0 -1.91 9.04 -31.11 25.87 25.6 0 -2.26 10.85 -43.06 0zm52.46 0l9.68 -45.76 12.66 0 -9.67 45.76 -12.67 0zm10.86 -51.19l2.89 -13.75 12.76 0 -2.9 13.75 -12.75 0zm19.99 51.19c-2.54,0 -4.36,-0.43 -5.47,-1.31 -1.12,-0.87 -1.68,-2.24 -1.68,-4.11 0,-0.85 0.15,-2.02 0.45,-3.53l5.88 -27.86c0.67,-3.08 1.77,-5.34 3.3,-6.78 1.54,-1.45 3.94,-2.17 7.2,-2.17l31.11 0c2.65,0 4.52,0.43 5.61,1.31 1.08,0.87 1.63,2.24 1.63,4.11 0,0.85 -0.15,2.02 -0.46,3.53l-5.88 27.86c-0.66,3.07 -1.76,5.34 -3.3,6.78 -1.53,1.45 -3.96,2.17 -7.28,2.17l-31.11 0zm33.92 -32.29c0.12,-0.6 0.18,-0.96 0.18,-1.08 0,-0.97 -0.82,-1.45 -2.45,-1.45l-17.9 0c-0.97,0 -1.65,0.17 -2.04,0.5 -0.39,0.33 -0.68,1.01 -0.86,2.03l-3.89 18.64c-0.06,0.24 -0.1,0.45 -0.13,0.63 -0.03,0.18 -0.05,0.36 -0.05,0.54 0,0.85 0.66,1.27 1.99,1.27l17.91 0c1.09,0 1.87,-0.18 2.35,-0.54 0.48,-0.37 0.82,-1 1,-1.9l3.89 -18.64zm51.55 32.29l6.79 -32.29c0.12,-0.6 0.18,-0.96 0.18,-1.08 0,-0.97 -0.75,-1.45 -2.26,-1.45l-18.91 0c-0.9,0 -1.57,0.17 -1.99,0.5 -0.42,0.33 -0.75,1.01 -0.99,2.03l-6.79 32.29 -12.66 0 9.68 -45.76 12.21 0 -1.09 4.97c2.18,-3.32 5.16,-4.97 8.96,-4.97l20.53 0c2.47,0 4.27,0.42 5.38,1.26 1.12,0.85 1.68,2.26 1.68,4.25 0,1.15 -0.12,2.29 -0.37,3.44l-7.77 36.81 -12.58 0z"/>
   <path class="fil0" d="M0 133.77l2.17 -10.49 31.39 0c0.96,0 1.61,-0.15 1.94,-0.45 0.33,-0.3 0.59,-0.88 0.77,-1.72l1 -4.52c0.06,-0.18 0.09,-0.42 0.09,-0.73 0,-0.78 -0.61,-1.17 -1.81,-1.17l-24.51 0c-2.05,0 -3.55,-0.41 -4.48,-1.22 -0.94,-0.82 -1.4,-1.92 -1.4,-3.3 0,-0.61 0.09,-1.27 0.27,-2l2.53 -12.21c0.54,-2.71 1.57,-4.71 3.08,-6.01 1.5,-1.3 3.85,-1.95 7.05,-1.95l37.81 0 -2.17 10.23 -31.21 0c-0.96,0 -1.66,0.18 -2.08,0.54 -0.42,0.36 -0.72,0.99 -0.9,1.9l-0.82 3.8c-0.06,0.18 -0.09,0.45 -0.09,0.81 0,0.97 0.64,1.45 1.9,1.45l24.79 0c2.11,0 3.63,0.42 4.56,1.26 0.94,0.85 1.41,1.96 1.41,3.35 0,0.3 -0.02,0.6 -0.05,0.91 -0.03,0.3 -0.07,0.6 -0.14,0.9l-2.71 12.66c-0.6,2.72 -1.66,4.72 -3.16,6.02 -1.51,1.29 -3.86,1.94 -7.06,1.94l-38.17 0zm73.36 0l2.26 -10.85 15.19 0c0.91,0 1.56,-0.17 1.95,-0.5 0.39,-0.33 0.71,-1.01 0.95,-2.03l3.98 -18.55c0.06,-0.3 0.09,-0.69 0.09,-1.17 0,-0.54 -0.14,-0.92 -0.41,-1.13 -0.27,-0.21 -0.77,-0.32 -1.49,-0.32l-19.72 0 -11.49 53.73 -12.66 0 13.84 -64.95 38.71 0c2.66,0 4.52,0.46 5.61,1.36 1.09,0.91 1.63,2.29 1.63,4.16 0,1.15 -0.12,2.29 -0.36,3.44l-5.88 27.86c-0.67,3.13 -1.89,5.41 -3.67,6.83 -1.77,1.41 -4.11,2.12 -7.01,2.12l-21.52 0zm47.57 0c-2.53,0 -4.35,-0.43 -5.47,-1.31 -1.11,-0.87 -1.67,-2.24 -1.67,-4.11 0,-0.85 0.15,-2.02 0.45,-3.53l5.88 -27.86c0.66,-3.08 1.76,-5.34 3.3,-6.78 1.54,-1.45 3.94,-2.18 7.19,-2.18l31.12 0c2.65,0 4.52,0.44 5.61,1.32 1.08,0.87 1.62,2.24 1.62,4.11 0,0.85 -0.15,2.02 -0.45,3.53l-5.88 27.86c-0.66,3.07 -1.76,5.34 -3.3,6.78 -1.54,1.45 -3.96,2.17 -7.28,2.17l-31.12 0zm33.92 -32.29c0.12,-0.6 0.18,-0.96 0.18,-1.08 0,-0.97 -0.81,-1.45 -2.44,-1.45l-17.91 0c-0.96,0 -1.64,0.16 -2.03,0.5 -0.4,0.33 -0.68,1.01 -0.86,2.03l-3.89 18.64c-0.06,0.24 -0.11,0.45 -0.14,0.63 -0.03,0.18 -0.04,0.36 -0.04,0.54 0,0.84 0.66,1.27 1.99,1.27l17.91 0c1.08,0 1.87,-0.18 2.35,-0.55 0.48,-0.36 0.81,-0.99 0.99,-1.89l3.89 -18.64zm14.93 32.29l9.68 -45.77 12.3 0 -1.09 4.98c1.15,-1.75 2.43,-3.02 3.85,-3.8 1.41,-0.78 3.12,-1.18 5.11,-1.18l13.29 0 -2.35 10.95 -18.27 0c-0.9,0 -1.58,0.16 -2.04,0.5 -0.45,0.33 -0.79,1.01 -1.03,2.03l-6.79 32.29 -12.66 0zm49.38 0c-2.53,0 -4.35,-0.43 -5.47,-1.31 -1.11,-0.87 -1.67,-2.24 -1.67,-4.11 0,-0.85 0.15,-2.02 0.45,-3.53l10.49 -49.57 12.67 0 -2.72 12.75 11.04 0 -2.08 9.95 -11.04 0 -4.97 23.43c-0.12,0.6 -0.18,1 -0.18,1.18 0,0.84 0.66,1.26 1.99,1.26l8.32 0 -2.08 9.95 -14.75 0z"/>
  </g>
 </g>
</svg>
