<svg width="37" height="40" viewBox="0 0 37 40" fill="none" xmlns="http://www.w3.org/2000/svg">
<g clip-path="url(#clip0)">
<path fill-rule="evenodd" clip-rule="evenodd" d="M23.4333 38.281C31.4843 34.9286 36.3148 28.154 37 17.3985C37.2398 11.6715 35.5611 6.88737 32.0667 3.91912C27.8528 0.671497 24.2898 -0.0618366 6.78333 0.182608C2.36389 26.2334 0.102778 39.4334 0 39.8175C20.6241 40.0271 23.4333 38.281 23.4333 38.281ZM8.4963 2.208C5.68704 18.3763 2.39815 37.5477 2.36389 37.7921C10.1065 38.0017 16.4102 38.1064 21.2065 36.8493C26.2769 35.4874 29.6 32.6588 31.8611 28.7477C33.7796 25.4651 34.9787 21.554 35.0472 17.0493C35.15 9.40166 31.8954 5.17626 27.3389 3.46515C22.0972 1.50959 15.1769 2.27785 8.4963 2.208Z" fill="black"/>
<path fill-rule="evenodd" clip-rule="evenodd" d="M27.9213 19.5637C28.1954 16.0018 27.5444 12.6145 26.0028 10.6938C24.1185 8.56366 22.9537 7.2716 14.1833 7.55096C11.3741 23.7192 9.86666 32.2399 9.8324 32.4494C17.6435 32.9383 26.1398 31.9256 27.9213 19.5637ZM26.037 18.4811C26.2083 9.68112 21.2065 9.36684 15.8278 9.54144C13.738 21.5541 12.2305 30.3192 12.162 30.4938C18.4657 31.1224 25.4889 28.2938 26.037 18.4811Z" fill="black"/>
</g>
<defs>
<clipPath id="clip0">
<rect width="37" height="40" fill="white"/>
</clipPath>
</defs>
</svg>
