<?xml version="1.0" encoding="UTF-8"?>
<!DOCTYPE svg PUBLIC "-//W3C//DTD SVG 1.1//EN" "http://www.w3.org/Graphics/SVG/1.1/DTD/svg11.dtd">
<!-- Creator: CorelDRAW 2020 (64-Bit) -->
<svg xmlns="http://www.w3.org/2000/svg" xml:space="preserve" width="33px" height="35px" version="1.1" style="shape-rendering:geometricPrecision; text-rendering:geometricPrecision; image-rendering:optimizeQuality; fill-rule:evenodd; clip-rule:evenodd"
viewBox="0 0 10.8 11.37"
 xmlns:xlink="http://www.w3.org/1999/xlink"
 xmlns:xodm="http://www.corel.com/coreldraw/odm/2003">
 <defs>
  <style type="text/css">
   <![CDATA[
    .fil0 {fill:#E63C24}
   ]]>
  </style>
 </defs>
 <g id="Слой_x0020_1">
  <metadata id="CorelCorpID_0Corel-Layer"/>
  <g id="_908544944">
   <path class="fil0" d="M6.84 10.92c2.35,-0.96 3.76,-2.9 3.96,-5.98 0.07,-1.64 -0.42,-3.01 -1.44,-3.86 -1.23,-0.93 -2.27,-1.14 -7.38,-1.07 -1.29,7.46 -1.95,11.24 -1.98,11.35 6.02,0.06 6.84,-0.44 6.84,-0.44zm-4.36 -10.33c-0.82,4.63 -1.78,10.12 -1.79,10.19 2.26,0.06 4.1,0.09 5.5,-0.27 1.48,-0.39 2.45,-1.2 3.11,-2.32 0.56,-0.94 0.91,-2.06 0.93,-3.35 0.03,-2.19 -0.92,-3.4 -2.25,-3.89 -1.53,-0.56 -3.55,-0.34 -5.5,-0.36z"/>
   <path class="fil0" d="M8.15 5.56c0.08,-1.02 -0.11,-1.99 -0.56,-2.54 -0.55,-0.61 -0.89,-0.98 -3.45,-0.9 -0.82,4.63 -1.26,7.07 -1.27,7.13 2.28,0.14 4.76,-0.15 5.28,-3.69zm-0.55 -0.31c0.05,-2.52 -1.41,-2.61 -2.98,-2.56 -0.61,3.44 -1.05,5.95 -1.07,6 1.84,0.18 3.89,-0.63 4.05,-3.44z"/>
  </g>
 </g>
</svg>
